<?xml version="1.0" encoding="utf-8"?>
<!-- Generator: Adobe Illustrator 22.0.1, SVG Export Plug-In . SVG Version: 6.00 Build 0)  -->
<svg version="1.1" id="Layer_1" xmlns="http://www.w3.org/2000/svg" xmlns:xlink="http://www.w3.org/1999/xlink" x="0px" y="0px"
	 viewBox="0 0 250 184" style="enable-background:new 0 0 250 184;" xml:space="preserve">
<style type="text/css">
	.st0{fill:#FFC912;}
	.st1{fill:#FFA914;}
	.st2{fill:#E1582F;}
	.st3{fill:#FFFFFF;}
</style>
<g>
	<g>
		<path class="st0" d="M169,183.7l6.1-82.3c0-0.2,0.1-0.3,0.1-0.5c6.6-45.3-24.3-87.3-69-93.8C62.9,1,22.6,30.2,14.1,73.1h-0.2v0.8
			c-0.2,1.2-0.5,2.4-0.6,3.6c-0.2,1.8-0.5,3.6-0.6,5.4h-0.3L2,184h3.5h8.8"/>
	</g>
	<g>
		<circle cx="63.5" cy="49.2" r="11.7"/>
	</g>
	<g>
		<circle cx="133.9" cy="61" r="11.7"/>
	</g>
	<g>
		<path class="st1" d="M43,60.4c0,0-12.9,0-15.8,11.7c-2.5,10.1,7.6,18.8,11.1,20.5c0,0-8.8-8.8-7.6-17C31.7,68.6,33.6,65.7,43,60.4
			z"/>
	</g>
	<g>
		<path class="st2" d="M120.6,106.6c-8.6,0-18.3-0.6-28.4-2.3c-24.7-4.1-46.6-14.5-47.5-15c-5.6-2.6-7.9-9.3-5.2-14.9
			s9.3-7.9,14.9-5.2c0.4,0.2,20.2,9.6,41.6,13.1c17.1,2.8,33.1,2.2,41.6,0.9c6.1-0.9,11.8,3.2,12.7,9.3c0.9,6.1-3.2,11.8-9.3,12.7
			C135.7,106,128.6,106.6,120.6,106.6z"/>
	</g>
	<g>
		<path class="st1" d="M146.2,75c0,0,13.5,5.3,13.5,15.2c0,7-2.9,12.9-13.5,17.6c0,0,9.4-5.9,10-16.4S146.2,75,146.2,75z"/>
	</g>
	<g>
		<path class="st0" d="M244.6,88.9c-3.5-2.3-8.2-1.4-10.5,2.1l-19.6,29c-0.2,0-0.5,0.1-0.7,0.1l10.4-30.6c1.3-4-0.8-8.3-4.8-9.7
			c-4-1.3-8.3,0.8-9.7,4.8L206.2,95l0,0l-15.2,45.7l0,0c0,0-2,6-0.9,12.4c0.1,0.3,0.1,0.6,0.2,0.9c0,0.1,0.1,0.2,0.1,0.2
			c1.2,5.7,4.2,10.8,8.4,14.7l-5.2,15.3h32.2l3.6-10.5c9.5-4.5,16.1-14.2,16.1-25.5c0-10.7-5.9-20-14.5-24.7l16-23.7
			C249,96,248.1,91.3,244.6,88.9z"/>
	</g>
	<path class="st3" d="M50.6,92c8.3,3.5,24.2,9.4,41.6,12.3c10.1,1.6,19.8,2.3,28.4,2.3c4.9,0,9.3-0.2,13.2-0.5
		c-0.8-0.5-16.4-8.8-39.2-12.3C73.4,90.6,54.2,91.7,50.6,92z"/>
</g>
</svg>
