<?xml version="1.0" encoding="utf-8"?>
<!-- Generator: Adobe Illustrator 22.0.1, SVG Export Plug-In . SVG Version: 6.00 Build 0)  -->
<svg version="1.1" id="Layer_1" xmlns="http://www.w3.org/2000/svg" xmlns:xlink="http://www.w3.org/1999/xlink" x="0px" y="0px"
	 viewBox="0 0 500 86.9" style="enable-background:new 0 0 500 86.9;" xml:space="preserve">
<style type="text/css">
	.st0{fill:#FFFFFF;}
	.st1{fill:#DF163A;}
</style>
<title>Artboard 1</title>
<g>
	<g>
		<g id="Group">
			<rect id="Rectangle-path" x="208.8" y="49.7" class="st0" width="2.3" height="24.4"/>
			<rect id="Rectangle-path-2" x="208.8" y="43.5" class="st0" width="2.3" height="2.8"/>
			<path id="Shape" class="st0" d="M154.6,49.1c-3.7-0.1-7.1,2-8.8,5.3c-1.4-3.3-4.7-5.3-8.2-5.3c-4.4,0-6.6,2.4-8.1,4.9v-4.4h-2.4
				V74h2.3V60c0-4.9,3.4-8.8,7.8-8.8s7.1,3.1,7.1,8.2V74h2.3V59.8c0-5.5,3.6-8.6,7.7-8.6c4.5,0,7.2,3.1,7.2,8.3V74h2.3V59.3
				C164,53.1,160.4,49.1,154.6,49.1z"/>
			<path id="Shape-2" class="st0" d="M178.2,49.1c-6.6,0-11.6,5.6-11.6,12.7v0.1c0,7.6,5.6,12.7,11.9,12.7c3.9,0.1,7.6-1.6,10.1-4.6
				l-1.6-1.5c-2.1,2.4-5.2,3.8-8.4,3.8c-4.8,0-9.1-3.5-9.6-9.6h20.2c0-0.3,0.1-0.7,0.1-1C189.4,54.6,185.1,49.1,178.2,49.1z
				 M169.2,60.7c0.4-5.4,4.2-9.5,9-9.5c5.6,0,8.4,4.5,8.8,9.5H169.2z"/>
			<path id="Shape-3" class="st0" d="M194.6,56.6v-6.9h-2.3V74h2.3V64c0-7.9,4.9-12.2,10.6-12.2h0.2v-2.6
				C200.5,49.1,196.5,52.2,194.6,56.6z"/>
			<path id="Shape-4" class="st0" d="M227,72.4c-5.7-0.1-10.1-4.8-10-10.5c0,0,0,0,0-0.1v-0.1c0-5.8,4.3-10.5,9.9-10.5
				c3.6,0,6,1.9,8.1,4l1.6-1.7c-4.5-5.3-12.4-6-17.7-1.5c-2.9,2.4-4.5,6-4.5,9.8v0.1c-0.1,6.9,5.5,12.6,12.4,12.7c0,0,0,0,0,0
				c4.5,0,7.5-2,9.9-4.8l-1.6-1.4C233.2,70.8,230.2,72.3,227,72.4z"/>
			<path id="Shape-5" class="st0" d="M257.1,52c-1.8-1.8-4.4-2.7-7.7-2.7c-3,0-6,0.7-8.7,2.1l0.9,2.1c2.3-1.3,5-2,7.6-2
				c5,0,8,2.5,8,7.5h-8.1c-6.3,0-10.7,2.9-10.7,7.9v0.1c0,5.1,4.9,7.7,9.4,7.7c3.7,0.1,7.2-1.6,9.3-4.6V74h2.3V58.8
				C259.8,56.3,258.9,53.8,257.1,52z M257.4,65c0,4.4-4.2,7.5-9.2,7.5c-3.7,0-7.1-2.1-7.1-5.6v-0.1c0-3.4,2.9-5.7,8-5.7h8.3
				L257.4,65L257.4,65z"/>
			<path id="Shape-6" class="st0" d="M113.5,49.3c-3,0-6,0.7-8.7,2.1l0.9,2.1c2.3-1.3,5-2,7.7-2c5,0,8,2.5,8,7.5h-8.1
				c-6.3,0-10.7,2.9-10.7,7.9v0.1c0,5.1,4.9,7.7,9.4,7.7c3.7,0.1,7.2-1.6,9.3-4.6V74h2.3V58.8c0.2-2.5-0.7-5-2.5-6.9
				C119.4,50.2,116.8,49.3,113.5,49.3z M121.5,64.9c0,4.5-4.3,7.5-9.2,7.5c-3.7,0-7.1-2.1-7.1-5.6v-0.1c0-3.4,2.9-5.7,8-5.7h8.3
				L121.5,64.9L121.5,64.9z"/>
		</g>
		<g>
			<polygon class="st0" points="6.4,11.3 38,74.3 67.5,72.4 89.1,37.9 68.8,20.5 			"/>
			<path id="Combined-Shape" class="st1" d="M60.4,11.4l39.8,33.6l-7,15.5l-5.8,13.1c-0.6,1.7-2.2,2.9-4,2.8H40.7
				c-2.3,0-4-1-5.3-3.5L2.6,8.7h50.1C55.5,8.5,58.3,9.5,60.4,11.4z M40,48.8c0.1-0.2-0.1-0.4,0.1-0.5s0.1-0.2,0-0.2
				c0.1-0.3,0-0.7,0.1-1c0.2-0.3,0.2-0.7,0.3-1c0-0.4,0.1-0.8,0.2-1.2c0.1-0.5,0.1-0.9,0.3-1.4c0.2-0.9,0.5-1.8,0.9-2.6
				c0.1-0.3,0.2-0.7,0.3-1c0.2-0.3,0.4-0.7,0.4-1.1c0.1-0.8,0.3-1.7,0.6-2.5c0-0.2,0.1-0.3,0.2-0.4c0.1-0.2,0-0.3,0.1-0.5
				c0.2-0.5,0.3-1,0.4-1.5c0.2-0.8,0.7-1.6,0.9-2.5c0.1-0.4,0.3-0.7,0.5-1c0.2-0.4,0.2-0.9,0.4-1.3c0.6-1.5,1.3-3,2.1-4.4
				c0.4-0.6,1-1.2,1.6-1.7c0.1-0.1,0.2-0.1,0.3-0.3s0-0.2,0.1-0.3c0.2-0.3,0.4-0.6,0.6-1c0.3-1.2-0.4-2.5-1.6-2.9
				c-0.2-0.1-0.4-0.1-0.6-0.1c-1.8,0.1-2.5,2-3,3.4c-0.8,2-1.5,4.1-2.3,6.1c-0.4,1-0.8,2-1.1,3c-0.3,0.8-0.7,1.6-0.9,2.5
				c-1,3.9-2.2,7.7-3,11.6c-0.4,2.1-0.7,4.1-1.1,6.2c-0.2,0.8-0.3,1.5-0.3,2.3c0,0.3,0,0.5-0.1,0.8c-0.1,0.4-0.5,0.3-0.4,0
				s-0.1-0.5-0.1-0.8c-0.1-0.3-0.1-0.7-0.1-1c0-0.4-0.1-0.8-0.3-1.2c-0.1-0.4,0.1-0.8,0-1.2s-0.2-0.8-0.2-1.2s0-0.6-0.1-0.8
				s-0.2-0.8-0.3-1.2c-0.2-0.5-0.3-1-0.4-1.5c-0.1-1.1-0.3-2.1-0.5-3.2c-0.2-0.8-0.3-1.7-0.4-2.5s-0.2-1.5-0.9-1.9
				c-1.5-0.8-2.2,0.9-2.5,2c-0.4,1.3-0.9,2.7-1.3,4c-0.2,0.8-0.5,1.6-0.8,2.3c-0.3,0.7-0.6,1.5-0.8,2.3c-0.2,0.6-0.7,1.4-0.4,2.1
				c0.3,0.5,1,0.8,1.5,0.5c0.1,0,0.1-0.1,0.2-0.1c0.5-0.5,0.8-1.1,1-1.7c0.3-0.7,0.4-1.5,0.7-2.2c0.1-0.2,0.3-0.4,0.3-0.6
				s0-0.5,0.2-0.3c-0.1-0.3,0.7-1.2,0.7-0.5c0,0.2,0.2,0,0.2,0.2s-0.1,0.3-0.1,0.4c0,0.2,0.1,0.5,0.2,0.7c0.2,0.8,0.4,1.7,0.4,2.5
				c0.1,1,0.3,1.9,0.4,2.9s0.3,1.7,0.4,2.5c0.1,0.9,0.2,1.8,0.5,2.7c0.1,0.2,0.1,0.5,0.2,0.8s0,0.5,0,0.7c0,0.3,0.1,0.5,0.2,0.7
				c0.2,0.3,0.2,0.9,0.2,1.2c0.2,1,0.3,1.9,0.5,2.9c0.1,0.8,0.3,1.6,0.7,2.3c0.4,0.4,1,0.4,1.5,0.1c0.4-0.3,0.7-0.8,0.8-1.3
				c0.2-1.2,0.4-2.5,0.5-3.7c0.1-0.9,0.3-1.8,0.3-2.7c0-0.8,0.2-1.6,0.4-2.3c0.1-0.3,0.3-0.8,0.2-1.1s0-0.9,0.1-1.2
				c0.1-0.5,0.3-0.9,0.4-1.3c0-0.2-0.1-0.2-0.2-0.4s0-0.4,0-0.5c0.1-0.4,0.2-0.8,0.2-1.3c0-0.2,0.1-0.4,0.1-0.6c0-0.2,0-0.4,0-0.6
				C39.8,49.2,39.9,49,40,48.8z M68.7,29.2c-0.7,0.1-1.8,1.3-1.5,2c-0.3-0.6,0.2,0.4,0,0c0.1,0.3,0.3,0.7,0.7,0.7s0.5,0.1,0.7,0
				c0.6-0.4,1.1-0.9,1.3-1.6c0.1-0.3,0.1-1-0.4-1.1C69.3,29.1,69,29.1,68.7,29.2z M65.6,42.9c0,0.5-0.3,1.2-0.1,1.7c0,0,0-0.1,0,0
				c0.2,0.4,0.1,0.2,0,0c0.6,1.2,2.4,0,2.8-0.8c0.2-0.3,0-0.8,0-1.2s0-0.4,0-0.7c0-0.3,0-0.5,0-0.8c0.1-0.3,0.2,0,0.2,0
				s-0.2-0.4-0.1-0.4s0.1,0.2,0.1,0.1s-0.2-0.5-0.2-0.5s0.1-0.3,0.2-0.4c0-0.3,0-0.6,0-0.9c0,0,0,0-0.1,0s0-0.7,0-0.8
				c0-0.2,0-0.3,0-0.5c0.1-0.1,0-0.4,0-0.6s0-0.3,0.1-0.4c0,0,0-0.1,0-0.1c0,0-0.1,0-0.1,0c0.2-0.3,0.2-0.7,0.2-1.1
				c0-0.2,0.2-0.5,0-0.5V35c0,0-0.1,0-0.1,0c-0.2-0.2,0.1-0.6-0.4-0.6c-0.2,0-0.4,0.1-0.6,0.2c-0.5,0.2-0.7,0.7-1,1.1
				c-0.3,0.6-0.5,1.3-0.4,2c-0.1,1.1-0.3,2.1-0.3,3.3C65.8,41.6,65.6,42.2,65.6,42.9z M51.8,42C51.8,42,51.9,42,51.8,42
				c-0.4,0.1-1.1,0.5-1.5,0.4c-0.1,0.2-0.7,0.2-0.8,0.3c-0.4,0.3-0.7,0.6-0.9,1.1c-0.2,1.1-0.3,2.2-0.3,3.3c0,0.5-0.1,1-0.2,1.5
				c0,0.1,0,0.2-0.1,0.4s0.1,0.5,0,0.8c0,0.3,0,0.7,0,1c0,0.4-0.1,0.7-0.1,1.1c0,0.6,0,1.7,0.8,1.7c1.1-0.1,2-0.9,2.2-2
				c0.2-1.2,0-2.4,0.2-3.6c0-0.6,0.1-1.1,0.3-1.6c0.1-0.2,0.1-0.5,0.2-0.7c0.2-0.4,0.5-0.7,0.8-1l1.1-0.9c0.3-0.2,0.4-0.5,0.5-0.8
				c0.1-0.3,0-0.5-0.1-0.8c-0.1-0.3-0.1-0.5-0.5-0.6c-0.2,0-0.4,0-0.6,0C52.7,41.6,51.8,41.9,51.8,42L51.8,42z M46,46.6
				c-0.1-0.1-0.1-0.3-0.1-0.5c0-0.1,0.2-0.1,0.2-0.2l0,0c-0.2,0-0.2-0.7-0.3-0.8c-0.2-0.3-0.6-0.4-0.9-0.2c-0.9,0.3-1.5,1-1.8,1.9
				c-0.3,0.7-0.4,1.5-0.3,2.2c0,0.3,0,0.6,0,0.9c-0.1,0.3-0.1,0.7-0.1,1c0,1.3-0.3,2.8-0.2,4.1c0,0.6,0,2,1.1,1.5
				c0.4-0.2,0.7-0.4,1-0.7c0.2-0.2,0.2-0.1,0.4-0.2s0-0.2,0.1-0.2c0.1,0.3,0.3-0.1,0.2-0.2s-0.2,0.1-0.2,0c0-0.3,0.1-0.7,0.2-1
				c0.1-0.5,0.1-1,0.1-1.5c0.1-0.5,0.1-1.1,0.2-1.6s0.2-1.1,0.2-1.7c0.1-0.5,0.1-0.9,0.2-1.4C45.8,47.6,46.1,47,46,46.6z M45.2,41.3
				c0.4-0.1,0.7-0.3,1-0.6c0.3-0.2,0.5-0.4,0.7-0.7c0.1-0.2,0.1-0.5,0.2-0.7s0,0,0,0c0.2-0.3-0.2-0.9-0.4-1
				c-0.4-0.3-1.1,0.2-1.4,0.4c-0.5,0.4-0.8,0.6-1.1,1.2c-0.1,0.2-0.2,0.5-0.2,0.7c0,0.2,0.2,0.4,0.2,0.5S45.1,41.4,45.2,41.3
				L45.2,41.3z M85.1,40.4c0.7-0.4,1.1-1.1,1.3-1.8c-0.3-0.8-0.6-1-1.4-1.1c-0.9,0.1-1.7,0.4-2.5,0.9c-0.3,0.2-1.8,1.2-2.2,0.6
				c-0.1-0.1-0.5-0.5-0.4-0.6s-0.2-0.4-0.2-0.6c0.2-0.3,0.1-0.9,0.1-1.2s-0.2-0.4-0.1-0.6s0.2-0.2,0-0.4c-0.2-0.2,0-0.9,0-1.2
				c0-0.3-0.1-0.5,0.2-0.7s-0.2-1.2-0.2-1.3s0.1-0.2,0.2-0.3c-0.1-0.2-0.1-0.3-0.2-0.5c0-0.3-0.1-0.6-0.2-0.9
				c-0.8-1.5-2.9-0.1-3.6,0.7c-0.3,0.4-1,1.2-1.6,0.9c-0.7-0.1-1.4-0.1-2,0.2c-1.7,0.8-1.4,3.1-1.4,4.6c-0.1,1.1-0.1,2.2-0.2,3.2
				c0,0.6-0.3,1.8,0.2,2.3c0.5,0.3,1.1,0.3,1.5,0c0.2-0.1,0.4-0.3,0.6-0.4c0.2-0.1,0.3-0.4,0.3-0.6c0-0.1,0.2-0.2,0.2-0.3
				c0-0.2-0.1-0.4-0.1-0.6c0-0.1,0.1-0.3,0.2-0.4s-0.1-0.2-0.1-0.3s0-0.2,0.1-0.3s0-0.3-0.1-0.4c-0.1-0.4-0.1-0.8,0-1.2
				c0.1,0,0.2,0,0.2,0c0-0.3-0.3-0.5-0.2-0.8s0.2-0.4,0.1-0.7s0.3-0.2,0.2-0.4s-0.1-0.2,0-0.2s0.1-0.2,0.1-0.4s0.3-0.7,0.2-0.9
				c0.3-0.2,0.1-0.2,0.2-0.5c0.4,0,0.5-0.4,0.7-0.7c0.2-0.3,0.5-0.4,0.8-0.5c1.7-0.5,0.9,2.3,0.8,3.1s0,1.7,0,2.6
				c-0.1,0.7-0.2,1.7,0.5,2.1c0.5,0.3-1.1,1-1.4,1.2c-0.8,0.5-1.7,1-2.5,1.4c-1.7,0.9-3.3,2-5.1,2.8c-1.2,0.7-2.3,1.4-3.4,2.2
				c-0.2,0.1-1.9,1.4-2.1,1.3c0-2.2,0.2-4.3,0.3-6.5c0.1-1.6,0.3-3.1,0.4-4.7c0-0.9-0.6-1.5-1.5-1.3s-1.3,1.1-1.3,2
				c-0.1,1.1-0.2,2.2-0.2,3.4s-0.3,2.2-0.4,3.3c0,0.7-0.2,1.4-0.7,2c-0.4,0.3-1.1,0.6-1.6,0.3c-0.7-0.6-0.3-2.1-0.2-2.9
				c0-0.4,0-0.8,0-1.2s0.2-0.6,0.2-0.9c0.1-0.3,0.2-0.7,0.4-1c0.1-0.2,0.1-0.4,0.2-0.6c0.1-0.1,0.3-0.2,0.3-0.4
				c0.4-0.5,0.8-0.9,1-1.6c0.2-0.9-0.6-1-1.3-0.7c-1.4,0.7-2.5,1.9-3,3.4c-0.4,0.8-0.6,1.7-0.6,2.7c0,0.5-0.1,0.9-0.1,1.4
				s0.1,0.8,0.1,1.2s0,0.9-0.1,1.4c0,0.5,0.1,0.9,0.3,1.4c0.2,0.5,1.1,0.9,1.6,0.9c0.5,0,1-0.1,1.5-0.2c0.4-0.1,0.7-0.2,1-0.4
				c0.2-0.2,1-0.8,1-0.3s0.1,1.3-0.4,1.6c-0.8,0.6-1.7,1.2-2.5,1.8c-1.6,1.2-3.3,2.3-4.9,3.6c-3.1,2.5-6.1,5-9.1,7.6
				c-0.8,0.7-1.5,1.4-2.2,2.2c-0.6,0.4-1.1,1.1-1.3,1.8c0,0.8,0.6,1.5,1.4,1.6c0.4,0.1,0.8,0,1.1-0.2c0.2-0.3,0.5-0.5,0.8-0.7
				c0.7-0.7,1.4-1.4,2-2.1c0.6-0.7,1.2-1.3,1.8-2s1.4-1.3,2.1-2c0.6-0.6,1.3-1.3,2-1.8c2.2-1.7,4.4-3.5,6.6-5.3
				c0.7-0.7,1.4-1.2,2.3-1.7c0.3-0.1,0.2,0.3,0.1,0.5v1.5c0,1,0,2.1,0,3.1c0.1,1.8,0,3.6,0,5.4c0,1.1-0.1,2.2-0.1,3.3
				c-0.1,0.9-0.1,1.8,0.3,2.6c0.4,0.8,1.3,1.1,2.2,0.8c0.4-0.1,0.7-0.4,0.9-0.8c0.1-0.3,0.2-0.2,0.2-0.4c0-0.1,0.1-0.1,0.1-0.2
				c0.1-0.2-0.1-0.5-0.2-0.7c-0.1-0.1-0.1-0.3-0.2-0.4c0.1,0,0.2-0.1,0.3-0.3c0-0.3-0.5-0.3-0.5-0.5s0.2-0.4,0-0.5
				c0.5,0.1,0.2-1,0-1.1c-0.4-0.3-0.1-0.6-0.1-1s-0.3-0.8-0.3-1.2c0-0.2,0.2-0.2,0-0.4c-0.2-0.2-0.2-0.2-0.1-0.3s-0.1-0.2-0.1-0.4
				s0.2-0.2,0.2-0.3s-0.2-0.3-0.2-0.4c-0.1-0.2,0-0.3,0-0.5s0-0.4-0.1-0.6c0.1,0,0.1,0,0.2-0.1c0-0.2-0.3-0.2-0.2-0.5
				c0-0.1,0.2-0.2,0.2-0.2c-0.1-0.2-0.1-0.4-0.1-0.6c0-0.4,0-0.8,0-1.2s0.2-0.8,0.1-1.2s0-0.6,0-0.9c0-0.3,0-0.6,0-0.9
				c-0.1-0.4-0.1-0.9,0-1.3c0-0.1,0.2-0.3,0.1-0.4s-0.1-0.1,0-0.2c0.3-0.6-0.2-1.3,0.2-1.8c0.3-0.3,0.7-0.5,1-0.8
				c0.4-0.3,0.7-0.6,1.2-0.8c0.7-0.4,1.3-0.9,2-1.3c1.6-0.9,3.2-1.9,4.8-2.8s3.5-1.9,5.3-2.8c1.7-0.9,3.4-1.6,5.2-2.2
				C83.5,41.3,84.3,41,85.1,40.4L85.1,40.4z"/>
		</g>
	</g>
	<g id="Alaska">
		<path class="st0" d="M393,24.9l-22.6,37.9c-2.2,3.5-3.6,7.5-4,11.7h-8.9c0.6-4.8,2.5-9.4,6.4-15.9L379.7,32
			c3.2-5.2,6.3-7.1,12-7.1H393z"/>
		<path class="st0" d="M391.2,64.7c-1.6,1.5-4.9,3.9-7.6,3.9c-1.9-0.1-1.9-1.8-0.7-4.2c4.8-9.1,9.8-14,16-14h1.1L391.2,64.7z
			 M399.6,45.3c-11.5,0-18.5,6.7-24.7,21.3c-1.6,3.7-2.4,8.2,2.9,8.2c3,0,8.1-1.7,11.6-4.1c-0.3,1.3-0.4,2.6-0.3,3.9h8
			c0.3-3.1,1.5-7,4.1-11.8l10.1-16.8C407.3,45.5,403.5,45.3,399.6,45.3z"/>
		<path class="st0" d="M473.9,64.7c-1.7,1.5-4.9,3.9-7.6,3.9c-1.9-0.1-1.9-1.8-0.7-4.2c4.8-9.1,9.8-14,16-14h1.1L473.9,64.7z
			 M482.2,45.3c-11.5,0-18.5,6.7-24.7,21.3c-1.5,3.7-2.4,8.2,2.9,8.2c3,0,8-1.7,11.6-4.1c-0.3,1.3-0.4,2.6-0.3,3.9h8
			c0.3-3.1,1.5-7,4.1-11.8l10-16.8C490,45.5,486.1,45.3,482.2,45.3L482.2,45.3z"/>
		<path class="st0" d="M456.1,82.6h-2.6c-3.4,0-6.4-2.3-7.3-5.6l-4-15.1l-7.5,12.6h-8.6L450,34c3.1-5.2,6.3-7.2,12-7.2h0.9L447,53.6
			l11.9-8.2h9.6l-20,13.8l0,0L456.1,82.6z"/>
		<path class="st0" d="M377.2,22.6c-8.1,0-12.2,2.1-20.1,7.9l-26.8,19.3h-17.1c-5,0-8.9,0.2-12.1,3.1l-4.5,4.1l24.9-1l-25.6,18.5
			H307l26.2-18.9c5.1-0.2,8.6-0.3,8.6-0.3c6.1-0.2,9.5-5.5,9.5-5.5h-10.1l21.2-15.3l-15.7,25.5c-3.4,5.9-5,10-5.5,14.5h9.1
			c0.4-4.1,1.8-8.1,4-11.7L375.8,27c1.5-2.5,2.8-4.5,2.8-4.5L377.2,22.6z"/>
		<path class="st0" d="M419.9,53.5c-0.1,0.8,0.2,1.2,1.7,2.2l2.5,1.6c2.7,1.8,3.7,4.4,3.4,6.5c-0.9,6-5.3,10.8-14.7,10.8
			c-3.6,0.1-7.3-0.3-10.9-0.9l3.6-6.1c2.6,0.5,5.2,0.8,7.9,0.9c3.5,0,4.9-1.6,5.1-2.9c0.1-0.8-0.3-1.7-1.9-2.8l-1.9-1.4
			c-3.1-2.2-3.9-4-3.5-6.8c0.8-5.3,6.9-9.4,15.5-9.4c2.9,0,5.9,0.2,8.8,0.5l-3.4,5.8c-2.1-0.2-5.5-0.3-7.9-0.2
			S420.1,52.3,419.9,53.5z"/>
	</g>
	<path class="st0" d="M493.1,65.8c2.5,0,4.6,2,4.6,4.5c0,2.5-2,4.6-4.5,4.6c-2.5,0-4.6-2-4.6-4.5c0,0,0,0,0-0.1
		C488.6,67.9,490.6,65.8,493.1,65.8z M493.1,74c2,0.1,3.7-1.5,3.8-3.5c0.1-2-1.5-3.7-3.5-3.8c-2-0.1-3.7,1.5-3.8,3.5
		c0,0.1,0,0.1,0,0.2C489.5,72.3,491.1,73.9,493.1,74C493,74,493.1,74,493.1,74z M492.5,72.8h-0.9v-4.9h1.7c0.9,0,1.6,0.6,1.7,1.5
		c0,0,0,0,0,0c0,0.7-0.4,1.3-1.1,1.5l1.1,1.9h-1.1l-1-1.8h-0.4L492.5,72.8z M493.2,70.1c0.5,0,0.9-0.3,0.9-0.7s-0.3-0.8-0.9-0.8
		h-0.6v1.5H493.2z"/>
</g>
</svg>
